<?xml version="1.0" standalone="no"?>
<!DOCTYPE svg PUBLIC "-//W3C//DTD SVG 20010904//EN"
 "http://www.w3.org/TR/2001/REC-SVG-20010904/DTD/svg10.dtd">
<svg version="1.0" xmlns="http://www.w3.org/2000/svg"
 width="750.000000pt" height="750.000000pt" viewBox="0 0 750.000000 750.000000"
 preserveAspectRatio="xMidYMid meet">
<metadata>
Created by potrace 1.14, written by Peter Selinger 2001-2017
</metadata>
<g transform="translate(0.000000,750.000000) scale(0.100000,-0.100000)"
fill="#000000" stroke="none">
<path d="M5300 6239 c-19 -4 -89 -13 -155 -18 -66 -5 -145 -14 -175 -20 -30
-6 -89 -15 -130 -22 -41 -6 -79 -15 -84 -20 -6 -5 -24 -9 -41 -9 -18 0 -35 -3
-39 -7 -6 -7 -44 -17 -146 -39 -14 -3 -34 -9 -45 -13 -11 -5 -47 -17 -80 -27
-72 -22 -246 -93 -260 -105 -5 -5 -17 -9 -26 -9 -10 0 -19 -3 -21 -7 -3 -9
-74 -43 -87 -43 -5 0 -11 8 -15 18 -5 17 -26 53 -36 62 -3 3 -37 55 -75 115
-71 114 -80 125 -104 125 -10 0 -12 -10 -7 -40 3 -23 11 -50 16 -60 6 -11 14
-29 20 -40 5 -11 10 -25 10 -31 0 -10 21 -64 40 -99 4 -9 11 -30 14 -48 4 -17
12 -34 17 -37 20 -13 6 -31 -39 -49 -26 -11 -49 -23 -52 -26 -3 -4 -36 -27
-75 -51 -38 -24 -71 -47 -73 -51 -2 -4 -9 -8 -15 -8 -7 0 -24 -11 -39 -25 -15
-14 -31 -25 -36 -25 -5 0 -19 -11 -32 -25 -13 -14 -27 -25 -32 -25 -5 0 -19
-10 -31 -23 -12 -13 -31 -30 -43 -38 -90 -61 -343 -313 -451 -449 -15 -19 -30
-37 -33 -40 -14 -12 -229 -318 -246 -350 -11 -19 -21 -37 -24 -40 -3 -3 -14
-21 -24 -40 -11 -19 -22 -37 -25 -40 -11 -10 -92 -175 -91 -187 0 -7 -4 -13
-10 -13 -5 0 -10 -4 -10 -10 0 -9 -40 -104 -61 -142 -5 -10 -9 -23 -9 -30 0
-7 -6 -24 -13 -38 -7 -14 -21 -52 -31 -85 -10 -33 -22 -68 -27 -77 -5 -10 -9
-29 -9 -43 0 -14 -4 -25 -9 -25 -5 0 -13 -26 -17 -57 -3 -32 -10 -62 -14 -68
-8 -11 -12 -28 -33 -165 -7 -47 -16 -92 -20 -100 -16 -38 -34 -562 -22 -628
l6 -33 38 33 c53 47 76 64 108 85 15 10 34 23 41 30 7 7 20 13 28 13 8 0 14 5
14 10 0 6 7 10 15 10 8 0 15 4 15 10 0 5 11 12 25 16 14 3 25 10 25 15 0 5 9
9 19 9 11 0 22 4 25 9 3 4 27 16 53 25 26 10 57 21 68 26 58 26 164 49 286 62
132 15 341 -3 484 -41 55 -15 113 -36 121 -44 16 -16 34 -4 75 50 62 83 68 89
135 157 67 67 105 100 144 125 14 8 27 18 30 21 9 9 84 51 103 57 9 3 17 9 17
14 0 5 5 9 11 9 6 0 26 7 45 15 74 33 101 43 139 55 22 7 49 16 60 20 11 4 56
15 100 24 44 9 100 21 123 27 61 13 341 22 376 12 16 -5 34 -18 40 -29 6 -10
13 -21 16 -24 3 -3 14 -23 25 -45 11 -22 22 -42 25 -45 3 -3 14 -23 25 -45 11
-22 23 -41 28 -43 4 -2 7 -12 7 -23 0 -10 5 -19 10 -19 6 0 10 -6 10 -14 0 -8
6 -21 13 -28 15 -15 47 -81 47 -97 0 -6 4 -11 9 -11 5 0 11 -8 14 -17 6 -18
48 -94 57 -103 3 -3 21 -36 40 -75 19 -38 37 -72 40 -75 3 -3 19 -32 35 -65
17 -33 32 -62 35 -65 3 -3 14 -23 25 -45 11 -22 22 -42 25 -45 3 -3 17 -29 32
-58 36 -70 62 -116 68 -122 3 -3 14 -25 25 -50 11 -25 22 -47 25 -50 8 -8 27
-41 62 -110 18 -36 35 -67 38 -70 3 -3 14 -23 25 -45 11 -22 22 -42 25 -45 3
-3 19 -32 35 -65 17 -33 36 -66 42 -73 7 -7 13 -20 13 -28 0 -8 5 -14 10 -14
6 0 10 -8 10 -18 0 -10 4 -22 9 -27 5 -6 23 -37 41 -70 18 -33 45 -80 59 -105
14 -25 36 -67 50 -95 13 -27 27 -52 30 -55 4 -3 20 -32 36 -65 17 -33 36 -66
43 -73 6 -7 12 -17 12 -22 0 -18 91 -100 132 -118 89 -40 106 -44 184 -39 98
6 125 12 191 44 54 26 133 92 133 111 0 7 4 12 8 12 25 0 75 211 53 224 -6 4
-11 23 -11 42 0 19 -4 34 -10 34 -5 0 -10 8 -10 17 0 19 -61 146 -72 151 -5 2
-8 10 -8 18 0 8 -4 14 -8 14 -5 0 -14 11 -20 25 -14 30 -54 33 -106 8 -56 -26
-60 -55 -17 -138 20 -38 39 -71 44 -73 4 -2 7 -12 7 -22 0 -10 4 -21 9 -24 18
-12 31 -101 20 -140 -12 -42 -82 -116 -110 -116 -11 0 -19 -4 -19 -10 0 -15
-146 -12 -172 3 -31 17 -78 63 -78 76 0 6 -4 11 -10 11 -5 0 -10 6 -10 14 0 8
-6 21 -12 28 -12 12 -36 54 -97 173 -14 28 -28 52 -31 55 -6 6 -33 54 -68 122
-15 29 -29 55 -32 58 -3 3 -16 28 -30 55 -38 74 -84 159 -90 165 -11 11 -40
73 -40 86 0 8 -4 14 -9 14 -5 0 -13 10 -17 23 -4 12 -10 24 -13 27 -3 3 -19
32 -36 65 -16 33 -32 62 -35 65 -3 3 -14 23 -25 45 -11 22 -22 42 -25 45 -5 5
-23 39 -104 195 -22 44 -43 82 -46 85 -3 3 -14 23 -25 45 -11 22 -22 42 -25
45 -3 3 -18 32 -35 65 -16 33 -33 62 -36 65 -4 3 -9 15 -13 28 -4 12 -12 22
-17 22 -5 0 -9 6 -9 14 0 13 -29 75 -40 86 -5 5 -41 71 -79 145 -9 17 -19 32
-23 33 -5 2 -8 12 -8 22 0 10 -3 20 -7 22 -5 2 -20 27 -35 56 -43 83 -62 116
-72 123 -17 13 -8 88 13 111 12 12 23 30 27 40 3 10 10 18 15 18 5 0 9 6 9 14
0 8 3 16 8 18 4 2 23 23 42 48 33 43 158 170 167 170 2 0 11 6 19 13 31 26 40
33 76 60 20 15 41 27 47 27 6 0 11 4 11 9 0 5 10 13 23 17 12 4 24 10 27 14
12 16 225 110 250 110 9 0 20 3 24 7 9 9 96 32 146 39 19 3 44 10 55 15 11 5
92 13 180 17 l160 7 3 35 c4 59 33 234 41 255 5 11 16 45 26 75 18 53 35 88
84 175 41 71 158 197 241 259 30 22 57 44 60 47 3 3 21 14 40 25 19 10 37 21
40 24 3 3 24 14 47 25 24 11 43 23 43 28 0 4 5 7 11 7 6 0 27 7 47 16 112 49
153 64 173 64 11 0 19 4 19 9 0 5 21 12 46 16 81 12 117 36 74 50 -11 3 -20
11 -20 16 0 5 -7 9 -15 9 -8 0 -15 4 -15 8 0 5 -16 17 -35 28 -19 10 -35 22
-35 25 0 4 -11 10 -25 13 -14 4 -25 11 -25 16 0 6 -7 10 -15 10 -8 0 -15 3
-15 8 0 6 -54 38 -151 87 -10 5 -19 13 -19 17 0 5 -6 8 -14 8 -17 0 -80 32
-84 43 -2 4 -11 7 -21 7 -9 0 -21 4 -27 9 -5 5 -32 19 -60 30 -28 11 -71 29
-95 39 -24 11 -78 32 -119 47 -41 14 -82 30 -91 35 -9 5 -33 12 -53 15 -20 4
-39 11 -42 16 -3 5 -16 9 -29 9 -13 0 -26 4 -29 9 -4 5 -29 12 -56 16 -28 4
-50 11 -50 16 0 5 -15 9 -34 9 -19 0 -37 4 -41 9 -3 5 -34 13 -70 16 -36 4
-68 11 -71 16 -3 5 -27 9 -54 9 -26 0 -50 4 -52 9 -8 22 -632 49 -708 30z
m-955 -449 c6 -4 35 -10 65 -14 79 -8 187 -30 196 -39 4 -4 16 -7 27 -7 20 0
109 -26 139 -41 10 -5 24 -9 32 -9 7 0 27 -7 42 -15 16 -8 39 -15 52 -15 12 0
22 -3 22 -8 0 -4 27 -16 61 -26 33 -11 62 -23 65 -28 3 -4 14 -8 25 -8 10 0
19 -4 19 -9 0 -5 15 -13 33 -16 17 -4 34 -10 37 -14 3 -4 25 -15 50 -26 25
-11 47 -22 50 -25 3 -3 33 -18 67 -35 35 -16 63 -33 63 -37 0 -5 6 -8 14 -8 8
0 21 -6 28 -13 7 -6 30 -21 51 -32 20 -11 37 -23 37 -27 0 -5 5 -8 10 -8 10 0
142 -92 168 -117 7 -7 17 -13 21 -13 4 0 16 -8 27 -18 10 -9 39 -33 64 -52 24
-19 61 -51 81 -70 19 -19 55 -54 80 -76 64 -60 199 -204 239 -255 19 -24 43
-53 52 -63 10 -11 18 -23 18 -28 0 -4 -33 -8 -73 -8 -40 0 -77 -4 -83 -9 -5
-5 -29 -11 -54 -14 -44 -5 -150 -28 -180 -39 -8 -3 -31 -11 -50 -17 -19 -7
-45 -15 -57 -18 -13 -3 -23 -9 -23 -14 0 -5 -6 -9 -14 -9 -14 0 -176 -79 -186
-91 -3 -3 -20 -14 -37 -24 -18 -11 -33 -23 -33 -27 0 -4 -6 -8 -13 -8 -7 0
-24 -11 -39 -25 -15 -14 -30 -25 -33 -25 -15 0 -226 -224 -265 -282 -48 -72
-66 -82 -76 -43 -3 14 -10 25 -15 25 -5 0 -9 7 -9 15 0 8 -4 15 -9 15 -5 0
-13 10 -17 23 -4 12 -9 24 -13 27 -5 4 -22 33 -55 95 -6 11 -14 22 -17 25 -4
3 -9 15 -13 28 -4 12 -12 22 -17 22 -5 0 -9 7 -9 15 0 8 -4 15 -9 15 -5 0 -11
8 -14 18 -3 9 -20 40 -36 67 -17 28 -34 57 -38 65 -3 8 -9 17 -12 20 -3 3 -11
14 -17 25 -34 64 -50 91 -61 103 -7 7 -13 20 -13 28 0 8 -3 14 -7 14 -5 0 -17
18 -27 40 -11 22 -23 40 -28 40 -4 0 -8 9 -8 20 0 11 -4 20 -9 20 -5 0 -12 8
-15 18 -3 9 -12 26 -19 37 -6 11 -26 45 -43 75 -27 47 -49 86 -108 195 -6 11
-13 22 -16 25 -3 3 -21 37 -39 75 -19 39 -37 72 -41 75 -3 3 -19 32 -35 65
-17 33 -32 62 -35 65 -3 3 -14 23 -25 45 -11 22 -22 42 -25 45 -3 3 -14 23
-25 45 -11 22 -22 42 -25 45 -3 3 -14 23 -25 45 -11 22 -22 42 -25 45 -16 16
-70 141 -65 150 8 13 282 3 300 -10z m-375 -70 c-20 -13 -33 -13 -25 0 3 6 14
10 23 10 15 0 15 -2 2 -10z m-5 -30 c-18 -20 -17 -20 8 -20 30 0 46 -18 26
-31 -10 -6 -8 -9 10 -9 20 0 22 -4 17 -25 -4 -17 0 -31 14 -45 11 -11 17 -26
14 -35 -4 -10 0 -15 10 -15 9 0 16 -7 16 -15 0 -8 6 -15 13 -15 7 0 8 -3 2 -8
-17 -12 -17 -35 -1 -29 10 4 13 1 10 -7 -3 -8 1 -20 9 -27 7 -7 12 -24 11 -38
-2 -15 -1 -18 2 -8 3 9 9 17 14 17 4 0 7 -8 5 -17 -2 -10 -4 -18 -5 -18 -1 0
-3 -12 -4 -27 -1 -18 2 -24 8 -18 16 16 29 11 23 -9 -3 -14 -1 -18 9 -14 12 5
19 -13 15 -39 0 -5 3 -8 8 -8 5 0 7 -8 4 -18 -2 -10 3 -31 11 -47 11 -21 16
-24 16 -12 0 10 5 15 10 12 6 -3 8 -20 5 -36 -3 -17 -2 -28 3 -25 4 2 14 1 22
-5 12 -7 11 -9 -5 -10 l-20 0 20 -9 c18 -8 18 -9 -5 -9 -19 -1 -21 -4 -11 -10
8 -5 20 -7 26 -5 14 6 27 -19 31 -56 1 -14 2 -28 3 -31 1 -4 10 -9 21 -12 13
-3 20 -14 20 -30 0 -13 7 -30 15 -37 8 -7 14 -20 13 -29 -2 -9 3 -15 10 -14
11 3 14 -1 16 -29 1 -7 7 -19 15 -27 11 -13 11 -16 -5 -22 -16 -6 -15 -8 6 -8
20 -1 22 -3 10 -11 -13 -8 -13 -10 1 -10 11 0 19 -12 23 -33 3 -19 17 -43 31
-55 30 -26 31 -37 8 -51 -10 -6 -13 -11 -6 -11 6 0 15 5 18 10 9 15 25 12 25
-6 0 -9 -5 -12 -11 -8 -7 4 -10 1 -7 -7 3 -8 11 -14 18 -14 7 0 15 -6 18 -14
3 -8 0 -11 -7 -7 -6 4 -11 1 -11 -8 0 -19 11 -20 29 -3 11 10 12 9 7 -1 -4 -7
-2 -20 6 -29 10 -13 10 -17 1 -20 -7 -3 -13 -9 -13 -14 0 -6 5 -7 10 -4 13 8
13 -1 -1 -28 -9 -18 -9 -20 2 -9 7 6 20 12 28 12 13 -1 13 -2 -1 -11 -14 -8
-15 -13 -6 -23 7 -8 19 -11 25 -9 7 3 13 -2 13 -11 0 -9 -4 -16 -9 -16 -5 0
-7 -9 -4 -20 5 -19 6 -19 18 -3 13 17 13 17 12 -2 -1 -11 3 -19 11 -18 15 4
15 -2 2 -28 -8 -13 -7 -19 0 -19 7 0 9 -9 6 -22 -3 -13 -3 -17 0 -10 14 31 43
3 49 -48 3 -27 17 -50 27 -44 6 4 8 -2 3 -15 -5 -15 -3 -19 8 -16 14 6 37 -51
37 -91 0 -15 2 -16 9 -5 7 11 11 10 20 -7 9 -17 8 -21 -7 -25 -13 -4 -13 -5 4
-6 20 -1 39 -31 35 -55 -1 -4 4 -14 10 -22 9 -11 6 -14 -17 -15 l-29 -1 30 -9
c20 -5 -6 -7 -73 -5 -57 2 -98 0 -92 -4 6 -4 -17 -10 -51 -14 -78 -8 -88 -1
-17 13 l53 10 -54 -3 c-36 -2 -57 -9 -63 -19 -6 -11 -22 -16 -53 -15 -25 0
-51 -5 -59 -11 -8 -7 -20 -11 -28 -10 -7 1 -24 1 -38 0 -18 -1 -21 -4 -12 -10
10 -6 7 -10 -12 -13 -16 -3 -23 -1 -19 5 3 6 -4 3 -18 -6 -13 -9 -33 -17 -46
-17 -12 0 -29 -7 -37 -16 -9 -8 -20 -13 -25 -10 -5 4 -11 1 -13 -5 -2 -7 -12
-7 -31 0 -17 7 -27 7 -27 1 0 -6 8 -10 18 -11 10 0 4 -5 -13 -11 -16 -6 -32
-14 -35 -17 -3 -3 -9 -7 -15 -8 -23 -4 -84 -41 -78 -47 6 -5 -24 -10 -69 -10
-9 0 -14 -4 -11 -9 4 -6 -1 -8 -13 -4 -18 7 -18 6 -1 -7 15 -12 15 -15 3 -26
-9 -6 -20 -9 -26 -5 -5 3 -18 -7 -28 -24 -9 -17 -23 -31 -29 -31 -7 0 -13 -5
-13 -12 0 -6 -3 -8 -7 -4 -5 4 -1 13 8 19 9 7 21 21 27 33 9 16 8 21 -3 21 -8
0 -12 -4 -9 -9 3 -5 -4 -16 -16 -26 -11 -9 -22 -27 -23 -40 -1 -12 -6 -21 -12
-18 -5 2 -19 7 -30 11 -19 7 -19 7 -1 -7 18 -14 17 -17 -30 -63 -27 -26 -48
-51 -47 -56 2 -5 -4 -6 -12 -2 -12 4 -10 10 12 30 l28 25 -25 -7 c-14 -4 -29
-13 -33 -19 -5 -6 -5 -1 -2 12 4 13 2 22 -4 22 -6 0 -11 5 -11 11 0 8 5 7 15
-1 24 -20 29 -4 7 18 -11 11 -23 18 -26 15 -3 -4 -6 1 -6 11 0 9 4 15 9 12 4
-3 6 6 3 19 -2 14 -11 25 -18 25 -14 0 -15 8 -18 110 -1 25 -3 70 -5 100 -3
47 -4 51 -11 25 -12 -50 -21 -11 -20 83 1 84 0 122 -4 182 -16 205 -18 252 -8
246 6 -4 11 15 14 50 1 31 0 58 -5 61 -4 2 -3 13 3 23 14 26 13 50 0 30 -8
-11 -9 -8 -4 13 4 17 2 27 -5 27 -9 0 -9 5 -1 20 6 11 8 26 4 32 -5 8 -2 9 9
5 10 -3 17 -2 17 2 0 5 -5 11 -12 13 -7 3 -9 14 -4 33 5 20 10 25 15 16 6 -9
11 -9 15 -3 3 6 -4 14 -16 18 -19 6 -20 8 -7 18 21 15 30 44 17 48 -7 3 -8 10
-3 18 5 8 9 34 10 59 1 27 11 61 23 81 14 22 22 52 22 80 0 61 17 117 37 125
14 5 15 8 4 14 -9 6 -10 13 -3 27 6 11 13 32 17 47 3 16 10 25 16 21 7 -4 9 0
5 13 -4 12 1 23 12 32 12 9 17 21 14 37 -2 13 -1 32 3 41 5 10 7 22 6 26 -1 5
8 11 20 14 16 4 17 8 7 14 -10 7 -9 9 5 9 9 0 17 6 18 13 0 6 4 3 9 -8 8 -19
9 -19 9 1 1 12 -7 25 -16 29 -17 6 -17 7 1 20 11 8 16 21 13 30 -4 10 -1 15
11 15 15 0 15 2 2 10 -12 8 -11 10 6 10 24 0 40 26 21 34 -9 5 -9 7 0 12 7 3
9 12 6 21 -5 12 -3 14 7 8 10 -6 12 -4 7 8 -10 26 12 31 23 5 l11 -23 -5 24
c-3 13 0 33 6 44 7 14 7 17 -1 13 -6 -4 -11 -2 -11 3 0 6 4 11 9 11 5 0 11 9
14 21 3 12 10 18 16 15 5 -4 12 -2 16 4 3 5 11 10 17 10 6 0 3 -9 -7 -20z
m-338 -767 c-3 -10 -5 -4 -5 12 0 17 2 24 5 18 2 -7 2 -21 0 -30z m856 -243
c3 -11 2 -18 -3 -15 -4 3 -10 14 -13 25 -3 11 -2 18 3 15 4 -3 10 -14 13 -25z
m-936 -307 c-3 -10 -5 -4 -5 12 0 17 2 24 5 18 2 -7 2 -21 0 -30z"/>
<path d="M4000 5609 c0 -5 5 -7 10 -4 6 3 10 8 10 11 0 2 -4 4 -10 4 -5 0 -10
-5 -10 -11z"/>
<path d="M4001 5574 c0 -11 3 -14 6 -6 3 7 2 16 -1 19 -3 4 -6 -2 -5 -13z"/>
<path d="M4015 5540 c3 -5 8 -10 11 -10 2 0 4 5 4 10 0 6 -5 10 -11 10 -5 0
-7 -4 -4 -10z"/>
<path d="M4097 5383 c4 -10 2 -14 -5 -9 -6 4 -10 -1 -9 -13 0 -10 10 -24 22
-31 18 -12 19 -11 7 2 -8 10 -10 26 -6 42 4 16 2 26 -5 26 -6 0 -8 -7 -4 -17z"/>
<path d="M3764 5319 c-4 -7 -3 -9 4 -5 5 3 12 0 15 -6 2 -7 7 -10 11 -7 4 3 0
12 -8 18 -11 9 -16 9 -22 0z"/>
<path d="M3751 5284 c0 -11 3 -14 6 -6 3 7 2 16 -1 19 -3 4 -6 -2 -5 -13z"/>
<path d="M4171 5144 c0 -11 3 -14 6 -6 3 7 2 16 -1 19 -3 4 -6 -2 -5 -13z"/>
<path d="M3666 5014 c-4 -14 -5 -28 -3 -31 3 -2 8 8 11 23 4 14 5 28 3 31 -3
2 -8 -8 -11 -23z"/>
<path d="M4332 4920 c0 -19 2 -27 5 -17 2 9 2 25 0 35 -3 9 -5 1 -5 -18z"/>
<path d="M3622 4851 c2 -7 7 -12 11 -12 12 1 9 15 -3 20 -7 2 -11 -2 -8 -8z"/>
<path d="M4571 4364 c0 -11 3 -14 6 -6 3 7 2 16 -1 19 -3 4 -6 -2 -5 -13z"/>
<path d="M3580 4299 c0 -5 5 -7 10 -4 6 3 10 8 10 11 0 2 -4 4 -10 4 -5 0 -10
-5 -10 -11z"/>
<path d="M4620 4271 c0 -5 5 -13 10 -16 6 -3 10 -2 10 4 0 5 -4 13 -10 16 -5
3 -10 2 -10 -4z"/>
<path d="M3576 4145 c-9 -26 -7 -32 5 -12 6 10 9 21 6 23 -2 3 -7 -2 -11 -11z"/>
<path d="M3592 4090 c0 -14 2 -19 5 -12 2 6 2 18 0 25 -3 6 -5 1 -5 -13z"/>
<path d="M3561 4074 c0 -11 3 -14 6 -6 3 7 2 16 -1 19 -3 4 -6 -2 -5 -13z"/>
<path d="M3570 3892 c0 -5 7 -9 15 -9 8 0 12 4 9 9 -3 4 -9 8 -15 8 -5 0 -9
-4 -9 -8z"/>
<path d="M4728 3893 c7 -3 16 -2 19 1 4 3 -2 6 -13 5 -11 0 -14 -3 -6 -6z"/>
<path d="M4228 3833 c7 -3 16 -2 19 1 4 3 -2 6 -13 5 -11 0 -14 -3 -6 -6z"/>
<path d="M4318 3833 c7 -3 16 -2 19 1 4 3 -2 6 -13 5 -11 0 -14 -3 -6 -6z"/>
<path d="M4278 3823 c7 -3 16 -2 19 1 4 3 -2 6 -13 5 -11 0 -14 -3 -6 -6z"/>
<path d="M4268 3803 c7 -3 16 -2 19 1 4 3 -2 6 -13 5 -11 0 -14 -3 -6 -6z"/>
<path d="M4111 3754 c0 -11 3 -14 6 -6 3 7 2 16 -1 19 -3 4 -6 -2 -5 -13z"/>
<path d="M3800 3589 c0 -5 5 -7 10 -4 6 3 10 8 10 11 0 2 -4 4 -10 4 -5 0 -10
-5 -10 -11z"/>
<path d="M3738 3503 c7 -3 16 -2 19 1 4 3 -2 6 -13 5 -11 0 -14 -3 -6 -6z"/>
<path d="M3695 3470 c-3 -5 -2 -10 4 -10 5 0 13 5 16 10 3 6 2 10 -4 10 -5 0
-13 -4 -16 -10z"/>
</g>
</svg>
